<?xml version="1.0" encoding="utf-8"?>
<!-- Generator: Adobe Illustrator 24.2.1, SVG Export Plug-In . SVG Version: 6.00 Build 0)  -->
<svg version="1.1" id="Layer_1" xmlns="http://www.w3.org/2000/svg" xmlns:xlink="http://www.w3.org/1999/xlink" x="0px" y="0px"
	 viewBox="0 0 640 512" style="enable-background:new 0 0 640 512;" xml:space="preserve">
<style type="text/css">
	.st0{fill:#231F20;}
</style>
<g>
	<path d="M473.3,121.4C473.3,121.4,473.3,121.4,473.3,121.4C473.4,121.3,473.4,121.3,473.3,121.4L473.3,121.4z"/>
	<polygon class="st0" points="293.4,149.6 207,230 113.6,104.2 199.9,23.7 	"/>
	<g>
		<polyline class="st0" points="470.4,244.7 370.6,113.6 148.5,325.8 148.7,326.1 123.1,406.9 97.5,487.8 172.9,472.2 248.1,456.6 
			248.3,456.9 		"/>
		<polygon class="st0" points="444.7,42.9 389.7,95.4 489.5,226.4 544.5,173.9 		"/>
	</g>
	<path class="st0" d="M526.4,405.8h-42.5c10.7-33.4,3.2-76.3-22.3-110.3L337.7,412.2c23.3,31,55.8,46.8,85.1,44.6h103.6V405.8z"/>
</g>
</svg>
