<?xml version="1.0" encoding="utf-8"?>
<!-- Generator: Adobe Illustrator 24.2.1, SVG Export Plug-In . SVG Version: 6.00 Build 0)  -->
<svg version="1.1" id="Layer_1" xmlns="http://www.w3.org/2000/svg" xmlns:xlink="http://www.w3.org/1999/xlink" x="0px" y="0px"
	 viewBox="0 0 50 50" style="enable-background:new 0 0 50 50;" xml:space="preserve">
<style type="text/css">
	.st0{fill-rule:evenodd;clip-rule:evenodd;fill:#061F34;}
	.st1{fill-rule:evenodd;clip-rule:evenodd;fill:#55A0D7;}
</style>
<g>
	<path class="st0" d="M7.8,1.13h34.27c3.81,0,6.93,3.12,6.93,6.93v34.27c0,3.81-3.12,6.93-6.93,6.93H7.8
		c-3.81,0-6.93-3.12-6.93-6.93V8.06C0.87,4.25,3.99,1.13,7.8,1.13z"/>
	<path class="st1" d="M23.48,21.89c0,0.91-0.15,1.74-0.45,2.51c-0.3,0.76-0.75,1.42-1.34,1.98c-0.59,0.56-1.33,0.99-2.22,1.3
		c-0.89,0.31-1.92,0.47-3.09,0.47h-1.66v5.57h-3.29V16.37h5.08c1.13,0,2.12,0.12,2.98,0.37c0.87,0.24,1.59,0.6,2.18,1.06
		c0.59,0.47,1.03,1.05,1.34,1.74C23.33,20.22,23.48,21.01,23.48,21.89L23.48,21.89z M20.06,22.12c0-0.46-0.07-0.87-0.22-1.25
		c-0.15-0.38-0.37-0.7-0.67-0.96c-0.29-0.26-0.67-0.47-1.12-0.61c-0.45-0.14-0.99-0.21-1.61-0.21h-1.71v6.33h1.82
		c0.57,0,1.06-0.08,1.5-0.23c0.43-0.15,0.8-0.38,1.1-0.67c0.3-0.29,0.52-0.64,0.68-1.05C19.98,23.07,20.06,22.62,20.06,22.12
		L20.06,22.12z M37.56,29.74c0,0.77-0.17,1.43-0.51,1.97c-0.34,0.54-0.79,0.98-1.35,1.33c-0.56,0.34-1.2,0.59-1.91,0.74
		c-0.71,0.15-1.44,0.23-2.18,0.23c-0.99,0-1.88-0.05-2.68-0.14c-0.8-0.09-1.55-0.23-2.26-0.4v-2.91c0.83,0.34,1.66,0.59,2.49,0.75
		c0.83,0.15,1.61,0.23,2.34,0.23c0.85,0,1.49-0.14,1.91-0.41c0.42-0.27,0.63-0.63,0.63-1.06c0-0.2-0.05-0.39-0.13-0.56
		c-0.09-0.17-0.25-0.33-0.5-0.48c-0.24-0.15-0.59-0.31-1.03-0.48c-0.44-0.17-1.02-0.35-1.74-0.55c-0.66-0.19-1.25-0.39-1.74-0.63
		c-0.5-0.24-0.92-0.51-1.24-0.83c-0.33-0.32-0.58-0.69-0.74-1.11c-0.16-0.42-0.24-0.91-0.24-1.48c0-0.55,0.12-1.07,0.37-1.55
		c0.25-0.49,0.62-0.92,1.11-1.28c0.49-0.37,1.1-0.66,1.84-0.87c0.73-0.21,1.59-0.32,2.57-0.32c0.85,0,1.6,0.05,2.26,0.14
		c0.66,0.09,1.24,0.19,1.74,0.3V23c-0.77-0.25-1.49-0.43-2.17-0.53c-0.68-0.1-1.35-0.15-2.01-0.15c-0.66,0-1.2,0.12-1.6,0.36
		c-0.4,0.24-0.6,0.57-0.6,0.99c0,0.2,0.04,0.39,0.12,0.54c0.08,0.16,0.24,0.31,0.47,0.47c0.24,0.15,0.56,0.31,0.98,0.47
		c0.42,0.16,0.98,0.34,1.67,0.53c0.78,0.22,1.43,0.46,1.97,0.71c0.53,0.25,0.96,0.54,1.28,0.86c0.33,0.32,0.56,0.68,0.7,1.09
		C37.49,28.75,37.56,29.22,37.56,29.74z"/>
</g>
</svg>
