<?xml version="1.0" encoding="utf-8"?>
<!-- Generator: Adobe Illustrator 24.2.1, SVG Export Plug-In . SVG Version: 6.00 Build 0)  -->
<svg version="1.1" id="Layer_1" xmlns="http://www.w3.org/2000/svg" xmlns:xlink="http://www.w3.org/1999/xlink" x="0px" y="0px"
	 viewBox="0 0 50 50" style="enable-background:new 0 0 50 50;" xml:space="preserve">
<style type="text/css">
	.st0{fill-rule:evenodd;clip-rule:evenodd;fill:#2C100F;}
	.st1{fill-rule:evenodd;clip-rule:evenodd;fill:#F7991C;}
</style>
<g>
	<path class="st0" d="M7.16,0H42.8C46.76,0,50,3.24,50,7.2v35.63c0,3.96-3.24,7.2-7.2,7.2H7.16c-3.96,0-7.2-3.24-7.2-7.2V7.2
		C-0.04,3.24,3.2,0,7.16,0z"/>
	<path class="st1" d="M25.57,31.31h-7.26l-1.38,4.13h-4.4l7.48-20.09h3.84l7.52,20.09h-4.4L25.57,31.31L25.57,31.31z M19.43,27.95
		h5.03l-2.52-7.53L19.43,27.95L19.43,27.95z M37.19,35.44h-4V20.51h4V35.44L37.19,35.44z M32.95,16.66c0-0.59,0.2-1.09,0.6-1.47
		c0.4-0.39,0.95-0.58,1.64-0.58c0.68,0,1.22,0.19,1.63,0.58c0.41,0.39,0.61,0.88,0.61,1.47c0,0.61-0.2,1.11-0.61,1.49
		c-0.41,0.39-0.95,0.58-1.62,0.58c-0.67,0-1.22-0.19-1.63-0.58C33.16,17.77,32.95,17.27,32.95,16.66z"/>
</g>
</svg>
