<?xml version="1.0" encoding="utf-8"?>
<!-- Generator: Adobe Illustrator 26.4.1, SVG Export Plug-In . SVG Version: 6.00 Build 0)  -->
<svg version="1.1" id="Layer_1" xmlns="http://www.w3.org/2000/svg" xmlns:xlink="http://www.w3.org/1999/xlink" x="0px" y="0px"
	 viewBox="0 0 512 512" style="enable-background:new 0 0 512 512;" xml:space="preserve">
<style type="text/css">
	.st0{fill:#FFFFFF;}
</style>
<path class="st0" d="M484.4,294.4c1.7,6.4,0.7,12.9-2.4,18.2s-8.2,9.5-14.6,11.2l-31.5,8.4l33,19c11.5,6.6,15.5,21.3,8.9,32.8
	s-21.4,15.4-32.9,8.8l-33-19l8.4,31.5c3.4,12.8-4.2,26-17,29.4s-26-4.2-29.4-17l-20.9-77.8L280,297.6v84.5l57,57
	c9.4,9.4,9.4,24.6,0,33.9c-4.7,4.7-10.9,7-17,7s-12.3-2.3-17-7l-23-23.1V488c0,13.2-10.8,24-24,24s-24-10.8-24-24v-38.1l-23,23
	c-9.4,9.4-24.6,9.4-33.9,0s-9.4-24.6,0-33.9l57-56.9v-84.5l-73.2,42.2L138,417.7c-3.4,12.8-16.6,20.4-29.4,17s-20.4-16.6-17-29.4
	l8.4-31.5l-33,19c-11.5,6.6-26.2,2.7-32.9-8.8s-2.6-26.2,8.9-32.8l33-19l-31.5-8.4c-12.8-3.4-20.4-16.6-17-29.4s16.6-20.4,29.4-17
	l77.8,20.9l73.2-43.1l-73.2-41.3L57,234.6c-12.8,3.4-26-4.2-29.4-17s4.2-26,17-29.4l31.5-8.4l-33-19c-11.5-6.6-15.5-21.3-8.9-32.8
	s21.4-15.4,32.9-8.8l33,19l-8.4-31.4c-3.4-12.8,4.2-26,17-29.4s26,4.2,29.4,17l20.9,77.8l73.2,42.2v-84.5L175,73
	c-9.4-9.4-9.4-24.6,0-33.9s24.6-9.4,33.9,0l23.1,23V24c0-13.3,10.8-24,24-24c13.2,0,24,10.8,24,24v38.1l23-23
	c9.4-9.4,24.6-9.4,33.9,0s9.4,24.6,0,33.9l-57,56.9v84.5l73.2-42.2L374,94.3c3.4-12.8,16.6-20.4,29.4-17c6.4,1.7,11.5,5.9,14.6,11.2
	s4.1,11.8,2.4,18.2l-8.4,31.5l33-19c11.5-6.6,26.3-2.7,32.9,8.8s2.6,26.2-8.9,32.8l-33,19l31.5,8.4c12.8,3.4,20.4,16.6,17,29.4
	s-16.6,20.4-29.4,17l-77.8-20.9L304,255.1l73.2,42.2l77.8-20.9C467.8,273.1,480.1,281.6,484.4,294.4z"/>
</svg>
